<svg width="1266" height="248" viewBox="0 0 1266 248" fill="none" xmlns="http://www.w3.org/2000/svg">
<g clip-path="url(#clip0_286_242)">
<path d="M42.9319 31.2V15.36H57.8119V31.2H42.9319ZM57.3225 31.2V-0.480002H72.2025V31.2H57.3225ZM71.7131 31.2V-0.480002H86.5931V31.2H71.7131ZM86.1037 31.2V-0.480002H100.984V31.2H86.1037ZM100.494 31.2V-0.480002H115.374V31.2H100.494ZM114.885 31.2V-0.480002H129.765V31.2H114.885ZM129.276 31.2V-0.480002H144.156V31.2H129.276ZM143.666 31.2V-0.480002H158.546V31.2H143.666ZM158.057 31.2V-0.480002H172.937V31.2H158.057ZM230.01 31.2V15.36H244.89V31.2H230.01ZM244.401 31.2V-0.480002H259.281V31.2H244.401ZM258.791 31.2V-0.480002H273.671V31.2H258.791ZM273.182 31.2V-0.480002H288.062V31.2H273.182ZM287.572 31.2V-0.480002H302.453V31.2H287.572ZM301.963 31.2V-0.480002H316.843V31.2H301.963ZM316.354 31.2V-0.480002H331.234V31.2H316.354ZM330.744 31.2V-0.480002H345.624V31.2H330.744ZM345.135 31.2V-0.480002H360.015V31.2H345.135ZM417.088 31.2V15.36H431.968V31.2H417.088ZM431.479 31.2V-0.480002H446.359V31.2H431.479ZM503.432 31.2V-0.480002H518.312V31.2H503.432ZM517.822 31.2V15.36H532.703V31.2H517.822ZM632.947 31.2V15.36H647.828V31.2H632.947ZM647.338 31.2V-0.480002H662.218V31.2H647.338ZM661.729 31.2V-0.480002H676.609V31.2H661.729ZM676.119 31.2V-0.480002H690.999V31.2H676.119ZM690.51 31.2V-0.480002H705.39V31.2H690.51ZM704.901 31.2V-0.480002H719.781V31.2H704.901ZM719.291 31.2V-0.480002H734.171V31.2H719.291ZM733.682 31.2V-0.480002H748.562V31.2H733.682ZM748.072 31.2V-0.480002H762.953V31.2H748.072ZM776.854 31.2V15.36H791.734V31.2H776.854ZM791.244 31.2V-0.480002H806.124V31.2H791.244ZM805.635 31.2V-0.480002H820.515V31.2H805.635ZM863.197 31.2V15.36H878.078V31.2H863.197ZM963.932 31.2V15.36H978.812V31.2H963.932ZM978.322 31.2V-0.480002H993.203V31.2H978.322ZM992.713 31.2V-0.480002H1007.59V31.2H992.713ZM1007.1 31.2V-0.480002H1021.98V31.2H1007.1ZM1021.49 31.2V-0.480002H1036.37V31.2H1021.49ZM1035.88 31.2V-0.480002H1050.77V31.2H1035.88ZM1050.28 31.2V-0.480002H1065.16V31.2H1050.28ZM1064.67 31.2V-0.480002H1079.55V31.2H1064.67ZM1079.06 31.2V-0.480002H1093.94V31.2H1079.06ZM1165.4 31.2V-0.480002H1180.28V31.2H1165.4ZM1179.79 31.2V-0.480002H1194.67V31.2H1179.79ZM1194.18 31.2V-0.480002H1209.06V31.2H1194.18ZM28.5412 62.2V30.52H43.4213V62.2H28.5412ZM42.9319 62.2V30.52H57.8119V62.2H42.9319ZM57.3225 62.2V30.52H72.2025V62.2H57.3225ZM129.276 62.2V30.52H144.156V62.2H129.276ZM143.666 62.2V30.52H158.546V62.2H143.666ZM158.057 62.2V30.52H172.937V62.2H158.057ZM215.619 62.2V30.52H230.499V62.2H215.619ZM230.01 62.2V30.52H244.89V62.2H230.01ZM244.401 62.2V30.52H259.281V62.2H244.401ZM316.354 62.2V30.52H331.234V62.2H316.354ZM330.744 62.2V30.52H345.624V62.2H330.744ZM345.135 62.2V30.52H360.015V62.2H345.135ZM402.697 62.2V30.52H417.578V62.2H402.697ZM417.088 62.2V30.52H431.968V62.2H417.088ZM431.479 62.2V30.52H446.359V62.2H431.479ZM503.432 62.2V30.52H518.312V62.2H503.432ZM517.822 62.2V30.52H532.703V62.2H517.822ZM532.213 62.2V30.52H547.093V62.2H532.213ZM618.557 62.2V30.52H633.437V62.2H618.557ZM632.947 62.2V30.52H647.828V62.2H632.947ZM647.338 62.2V30.52H662.218V62.2H647.338ZM719.291 62.2V30.52H734.171V62.2H719.291ZM733.682 62.2V30.52H748.562V62.2H733.682ZM748.072 62.2V30.52H762.953V62.2H748.072ZM776.854 62.2V30.52H791.734V62.2H776.854ZM791.244 62.2V30.52H806.124V62.2H791.244ZM805.635 62.2V30.52H820.515V62.2H805.635ZM863.197 62.2V30.52H878.078V62.2H863.197ZM877.588 62.2V30.52H892.468V62.2H877.588ZM891.979 62.2V46.36H906.859V62.2H891.979ZM949.541 62.2V30.52H964.421V62.2H949.541ZM963.932 62.2V30.52H978.812V62.2H963.932ZM978.322 62.2V30.52H993.203V62.2H978.322ZM1050.28 62.2V30.52H1065.16V62.2H1050.28ZM1064.67 62.2V30.52H1079.55V62.2H1064.67ZM1079.06 62.2V30.52H1093.94V62.2H1079.06ZM1107.84 46.36V30.52H1122.72V46.36H1107.84ZM1122.23 62.2V30.52H1137.11V62.2H1122.23ZM1136.62 62.2V30.52H1151.5V62.2H1136.62ZM1151.01 62.2V30.52H1165.89V62.2H1151.01ZM1165.4 62.2V30.52H1180.28V62.2H1165.4ZM1179.79 62.2V30.52H1194.67V62.2H1179.79ZM1194.18 62.2V30.52H1209.06V62.2H1194.18ZM1208.57 62.2V30.52H1223.45V62.2H1208.57ZM1222.96 62.2V30.52H1237.84V62.2H1222.96ZM1237.35 62.2V30.52H1252.23V62.2H1237.35ZM1251.74 62.2V46.36H1266.62V62.2H1251.74ZM28.5412 93.2V61.52H43.4213V93.2H28.5412ZM42.9319 93.2V61.52H57.8119V93.2H42.9319ZM57.3225 93.2V61.52H72.2025V93.2H57.3225ZM129.276 93.2V61.52H144.156V93.2H129.276ZM143.666 77.36V61.52H158.546V77.36H143.666ZM215.619 93.2V61.52H230.499V93.2H215.619ZM230.01 93.2V61.52H244.89V93.2H230.01ZM244.401 93.2V61.52H259.281V93.2H244.401ZM316.354 93.2V61.52H331.234V93.2H316.354ZM330.744 77.36V61.52H345.624V77.36H330.744ZM402.697 93.2V61.52H417.578V93.2H402.697ZM417.088 93.2V61.52H431.968V93.2H417.088ZM431.479 93.2V61.52H446.359V93.2H431.479ZM503.432 93.2V61.52H518.312V93.2H503.432ZM517.822 93.2V61.52H532.703V93.2H517.822ZM532.213 93.2V61.52H547.093V93.2H532.213ZM618.557 93.2V61.52H633.437V93.2H618.557ZM632.947 93.2V61.52H647.828V93.2H632.947ZM647.338 93.2V61.52H662.218V93.2H647.338ZM719.291 93.2V61.52H734.171V93.2H719.291ZM733.682 93.2V61.52H748.562V93.2H733.682ZM748.072 93.2V61.52H762.953V93.2H748.072ZM776.854 93.2V61.52H791.734V93.2H776.854ZM791.244 93.2V61.52H806.124V93.2H791.244ZM805.635 93.2V61.52H820.515V93.2H805.635ZM820.026 93.2V77.36H834.906V93.2H820.026ZM834.416 93.2V77.36H849.296V93.2H834.416ZM848.807 93.2V77.36H863.687V93.2H848.807ZM863.197 93.2V61.52H878.078V93.2H863.197ZM877.588 93.2V61.52H892.468V93.2H877.588ZM891.979 93.2V61.52H906.859V93.2H891.979ZM949.541 93.2V61.52H964.421V93.2H949.541ZM963.932 93.2V61.52H978.812V93.2H963.932ZM978.322 93.2V61.52H993.203V93.2H978.322ZM1050.28 93.2V61.52H1065.16V93.2H1050.28ZM1064.67 93.2V61.52H1079.55V93.2H1064.67ZM1079.06 93.2V61.52H1093.94V93.2H1079.06ZM1151.01 77.36V61.52H1165.89V77.36H1151.01ZM1165.4 93.2V61.52H1180.28V93.2H1165.4ZM1179.79 93.2V61.52H1194.67V93.2H1179.79ZM1194.18 93.2V61.52H1209.06V93.2H1194.18ZM1208.57 77.36V61.52H1223.45V77.36H1208.57ZM1222.96 77.36V61.52H1237.84V77.36H1222.96ZM1237.35 93.2V61.52H1252.23V93.2H1237.35ZM1251.74 93.2V61.52H1266.62V93.2H1251.74ZM14.1506 124.2V108.36H29.0306V124.2H14.1506ZM28.5412 124.2V92.52H43.4213V124.2H28.5412ZM42.9319 124.2V92.52H57.8119V124.2H42.9319ZM57.3225 124.2V92.52H72.2025V124.2H57.3225ZM71.7131 124.2V108.36H86.5931V124.2H71.7131ZM86.1037 124.2V108.36H100.984V124.2H86.1037ZM100.494 124.2V108.36H115.374V124.2H100.494ZM215.619 124.2V92.52H230.499V124.2H215.619ZM230.01 124.2V92.52H244.89V124.2H230.01ZM244.401 124.2V92.52H259.281V124.2H244.401ZM388.307 124.2V108.36H403.187V124.2H388.307ZM402.697 124.2V92.52H417.578V124.2H402.697ZM417.088 124.2V92.52H431.968V124.2H417.088ZM431.479 124.2V92.52H446.359V124.2H431.479ZM445.869 124.2V108.36H460.749V124.2H445.869ZM460.26 124.2V108.36H475.14V124.2H460.26ZM474.651 124.2V108.36H489.531V124.2H474.651ZM489.041 124.2V108.36H503.921V124.2H489.041ZM503.432 124.2V92.52H518.312V124.2H503.432ZM517.822 124.2V92.52H532.703V124.2H517.822ZM532.213 124.2V92.52H547.093V124.2H532.213ZM546.604 124.2V108.36H561.484V124.2H546.604ZM560.994 124.2V108.36H575.874V124.2H560.994ZM618.557 124.2V92.52H633.437V124.2H618.557ZM632.947 124.2V92.52H647.828V124.2H632.947ZM647.338 124.2V92.52H662.218V124.2H647.338ZM719.291 124.2V92.52H734.171V124.2H719.291ZM733.682 124.2V92.52H748.562V124.2H733.682ZM748.072 124.2V92.52H762.953V124.2H748.072ZM776.854 108.36V92.52H791.734V108.36H776.854ZM791.244 108.36V92.52H806.124V108.36H791.244ZM805.635 108.36V92.52H820.515V108.36H805.635ZM820.026 108.36V92.52H834.906V108.36H820.026ZM834.416 108.36V92.52H849.296V108.36H834.416ZM848.807 108.36V92.52H863.687V108.36H848.807ZM863.197 124.2V92.52H878.078V124.2H863.197ZM877.588 124.2V92.52H892.468V124.2H877.588ZM891.979 124.2V92.52H906.859V124.2H891.979ZM949.541 124.2V92.52H964.421V124.2H949.541ZM963.932 124.2V92.52H978.812V124.2H963.932ZM978.322 124.2V92.52H993.203V124.2H978.322ZM1050.28 124.2V92.52H1065.16V124.2H1050.28ZM1064.67 124.2V92.52H1079.55V124.2H1064.67ZM1079.06 124.2V92.52H1093.94V124.2H1079.06ZM1165.4 124.2V92.52H1180.28V124.2H1165.4ZM1179.79 124.2V92.52H1194.67V124.2H1179.79ZM1194.18 124.2V92.52H1209.06V124.2H1194.18ZM1251.74 108.36V92.52H1266.62V108.36H1251.74ZM-0.24 139.36V123.52H14.64V139.36H-0.24ZM14.1506 139.36V123.52H29.0306V139.36H14.1506ZM28.5412 155.2V123.52H43.4213V155.2H28.5412ZM42.9319 155.2V123.52H57.8119V155.2H42.9319ZM57.3225 155.2V123.52H72.2025V155.2H57.3225ZM71.7131 139.36V123.52H86.5931V139.36H71.7131ZM86.1037 139.36V123.52H100.984V139.36H86.1037ZM100.494 139.36V123.52H115.374V139.36H100.494ZM186.838 139.36V123.52H201.718V139.36H186.838ZM201.229 155.2V123.52H216.109V155.2H201.229ZM215.619 155.2V123.52H230.499V155.2H215.619ZM230.01 155.2V123.52H244.89V155.2H230.01ZM244.401 155.2V123.52H259.281V155.2H244.401ZM258.791 155.2V123.52H273.671V155.2H258.791ZM273.182 155.2V123.52H288.062V155.2H273.182ZM287.572 155.2V123.52H302.453V155.2H287.572ZM301.963 155.2V123.52H316.843V155.2H301.963ZM316.354 155.2V123.52H331.234V155.2H316.354ZM330.744 155.2V123.52H345.624V155.2H330.744ZM345.135 155.2V123.52H360.015V155.2H345.135ZM373.916 139.36V123.52H388.796V139.36H373.916ZM388.307 139.36V123.52H403.187V139.36H388.307ZM402.697 155.2V123.52H417.578V155.2H402.697ZM417.088 155.2V123.52H431.968V155.2H417.088ZM431.479 155.2V123.52H446.359V155.2H431.479ZM445.869 139.36V123.52H460.749V139.36H445.869ZM460.26 139.36V123.52H475.14V139.36H460.26ZM474.651 139.36V123.52H489.531V139.36H474.651ZM489.041 139.36V123.52H503.921V139.36H489.041ZM503.432 155.2V123.52H518.312V155.2H503.432ZM517.822 155.2V123.52H532.703V155.2H517.822ZM532.213 155.2V123.52H547.093V155.2H532.213ZM546.604 139.36V123.52H561.484V139.36H546.604ZM589.776 139.36V123.52H604.656V139.36H589.776ZM604.166 155.2V123.52H619.046V155.2H604.166ZM618.557 155.2V123.52H633.437V155.2H618.557ZM632.947 155.2V123.52H647.828V155.2H632.947ZM647.338 155.2V123.52H662.218V155.2H647.338ZM661.729 155.2V123.52H676.609V155.2H661.729ZM676.119 155.2V123.52H690.999V155.2H676.119ZM690.51 155.2V123.52H705.39V155.2H690.51ZM704.901 155.2V123.52H719.781V155.2H704.901ZM719.291 155.2V123.52H734.171V155.2H719.291ZM733.682 155.2V123.52H748.562V155.2H733.682ZM748.072 155.2V123.52H762.953V155.2H748.072ZM776.854 155.2V139.36H791.734V155.2H776.854ZM791.244 155.2V123.52H806.124V155.2H791.244ZM805.635 155.2V123.52H820.515V155.2H805.635ZM863.197 155.2V123.52H878.078V155.2H863.197ZM877.588 155.2V123.52H892.468V155.2H877.588ZM891.979 155.2V123.52H906.859V155.2H891.979ZM920.76 139.36V123.52H935.64V139.36H920.76ZM935.151 155.2V123.52H950.031V155.2H935.151ZM949.541 155.2V123.52H964.421V155.2H949.541ZM963.932 155.2V123.52H978.812V155.2H963.932ZM978.322 155.2V123.52H993.203V155.2H978.322ZM992.713 155.2V123.52H1007.59V155.2H992.713ZM1007.1 155.2V123.52H1021.98V155.2H1007.1ZM1021.49 155.2V123.52H1036.37V155.2H1021.49ZM1035.88 155.2V123.52H1050.77V155.2H1035.88ZM1050.28 155.2V123.52H1065.16V155.2H1050.28ZM1064.67 155.2V123.52H1079.55V155.2H1064.67ZM1079.06 155.2V123.52H1093.94V155.2H1079.06ZM1165.4 155.2V123.52H1180.28V155.2H1165.4ZM1179.79 155.2V123.52H1194.67V155.2H1179.79ZM1194.18 155.2V123.52H1209.06V155.2H1194.18ZM28.5412 186.2V154.52H43.4213V186.2H28.5412ZM42.9319 186.2V154.52H57.8119V186.2H42.9319ZM57.3225 186.2V154.52H72.2025V186.2H57.3225ZM129.276 186.2V154.52H144.156V186.2H129.276ZM143.666 186.2V170.36H158.546V186.2H143.666ZM316.354 186.2V154.52H331.234V186.2H316.354ZM330.744 186.2V154.52H345.624V186.2H330.744ZM345.135 186.2V154.52H360.015V186.2H345.135ZM402.697 186.2V154.52H417.578V186.2H402.697ZM417.088 186.2V154.52H431.968V186.2H417.088ZM431.479 186.2V154.52H446.359V186.2H431.479ZM503.432 186.2V154.52H518.312V186.2H503.432ZM517.822 186.2V154.52H532.703V186.2H517.822ZM532.213 186.2V154.52H547.093V186.2H532.213ZM618.557 186.2V154.52H633.437V186.2H618.557ZM632.947 186.2V154.52H647.828V186.2H632.947ZM647.338 186.2V154.52H662.218V186.2H647.338ZM719.291 186.2V154.52H734.171V186.2H719.291ZM733.682 186.2V154.52H748.562V186.2H733.682ZM748.072 186.2V154.52H762.953V186.2H748.072ZM776.854 186.2V154.52H791.734V186.2H776.854ZM791.244 186.2V154.52H806.124V186.2H791.244ZM805.635 186.2V154.52H820.515V186.2H805.635ZM863.197 186.2V154.52H878.078V186.2H863.197ZM877.588 186.2V154.52H892.468V186.2H877.588ZM891.979 186.2V154.52H906.859V186.2H891.979ZM949.541 186.2V154.52H964.421V186.2H949.541ZM963.932 186.2V154.52H978.812V186.2H963.932ZM978.322 186.2V154.52H993.203V186.2H978.322ZM1050.28 186.2V154.52H1065.16V186.2H1050.28ZM1064.67 186.2V154.52H1079.55V186.2H1064.67ZM1079.06 186.2V154.52H1093.94V186.2H1079.06ZM1165.4 186.2V154.52H1180.28V186.2H1165.4ZM1179.79 186.2V154.52H1194.67V186.2H1179.79ZM1194.18 186.2V154.52H1209.06V186.2H1194.18ZM28.5412 217.2V185.52H43.4213V217.2H28.5412ZM42.9319 217.2V185.52H57.8119V217.2H42.9319ZM57.3225 217.2V185.52H72.2025V217.2H57.3225ZM129.276 217.2V185.52H144.156V217.2H129.276ZM143.666 217.2V185.52H158.546V217.2H143.666ZM158.057 217.2V185.52H172.937V217.2H158.057ZM230.01 217.2V201.36H244.89V217.2H230.01ZM244.401 217.2V185.52H259.281V217.2H244.401ZM316.354 217.2V185.52H331.234V217.2H316.354ZM330.744 217.2V185.52H345.624V217.2H330.744ZM345.135 217.2V185.52H360.015V217.2H345.135ZM402.697 217.2V185.52H417.578V217.2H402.697ZM417.088 217.2V185.52H431.968V217.2H417.088ZM431.479 217.2V185.52H446.359V217.2H431.479ZM503.432 217.2V185.52H518.312V217.2H503.432ZM517.822 217.2V185.52H532.703V217.2H517.822ZM532.213 217.2V185.52H547.093V217.2H532.213ZM618.557 217.2V185.52H633.437V217.2H618.557ZM632.947 217.2V185.52H647.828V217.2H632.947ZM647.338 217.2V185.52H662.218V217.2H647.338ZM719.291 217.2V185.52H734.171V217.2H719.291ZM733.682 217.2V185.52H748.562V217.2H733.682ZM748.072 217.2V185.52H762.953V217.2H748.072ZM776.854 217.2V185.52H791.734V217.2H776.854ZM791.244 217.2V185.52H806.124V217.2H791.244ZM805.635 217.2V185.52H820.515V217.2H805.635ZM863.197 217.2V185.52H878.078V217.2H863.197ZM877.588 217.2V185.52H892.468V217.2H877.588ZM891.979 217.2V185.52H906.859V217.2H891.979ZM949.541 217.2V185.52H964.421V217.2H949.541ZM963.932 217.2V185.52H978.812V217.2H963.932ZM978.322 217.2V185.52H993.203V217.2H978.322ZM1050.28 217.2V185.52H1065.16V217.2H1050.28ZM1064.67 217.2V185.52H1079.55V217.2H1064.67ZM1079.06 217.2V185.52H1093.94V217.2H1079.06ZM1165.4 217.2V185.52H1180.28V217.2H1165.4ZM1179.79 217.2V185.52H1194.67V217.2H1179.79ZM1194.18 217.2V185.52H1209.06V217.2H1194.18ZM28.5412 248.2V216.52H43.4213V248.2H28.5412ZM42.9319 248.2V216.52H57.8119V248.2H42.9319ZM57.3225 248.2V216.52H72.2025V248.2H57.3225ZM71.7131 248.2V216.52H86.5931V248.2H71.7131ZM86.1037 248.2V216.52H100.984V248.2H86.1037ZM100.494 248.2V216.52H115.374V248.2H100.494ZM114.885 248.2V216.52H129.765V248.2H114.885ZM129.276 248.2V216.52H144.156V248.2H129.276ZM143.666 248.2V216.52H158.546V248.2H143.666ZM158.057 248.2V216.52H172.937V248.2H158.057ZM201.229 248.2V232.36H216.109V248.2H201.229ZM215.619 248.2V216.52H230.499V248.2H215.619ZM230.01 248.2V216.52H244.89V248.2H230.01ZM244.401 248.2V216.52H259.281V248.2H244.401ZM258.791 248.2V216.52H273.671V248.2H258.791ZM273.182 248.2V216.52H288.062V248.2H273.182ZM287.572 248.2V216.52H302.453V248.2H287.572ZM301.963 248.2V216.52H316.843V248.2H301.963ZM316.354 248.2V216.52H331.234V248.2H316.354ZM330.744 232.36V216.52H345.624V232.36H330.744ZM402.697 248.2V216.52H417.578V248.2H402.697ZM417.088 248.2V216.52H431.968V248.2H417.088ZM431.479 248.2V216.52H446.359V248.2H431.479ZM503.432 248.2V216.52H518.312V248.2H503.432ZM517.822 232.36V216.52H532.703V232.36H517.822ZM618.557 248.2V216.52H633.437V248.2H618.557ZM632.947 248.2V216.52H647.828V248.2H632.947ZM647.338 248.2V216.52H662.218V248.2H647.338ZM719.291 248.2V216.52H734.171V248.2H719.291ZM733.682 232.36V216.52H748.562V232.36H733.682ZM791.244 232.36V216.52H806.124V232.36H791.244ZM805.635 248.2V216.52H820.515V248.2H805.635ZM820.026 248.2V216.52H834.906V248.2H820.026ZM834.416 248.2V216.52H849.296V248.2H834.416ZM848.807 248.2V216.52H863.687V248.2H848.807ZM863.197 248.2V216.52H878.078V248.2H863.197ZM877.588 232.36V216.52H892.468V232.36H877.588ZM949.541 248.2V216.52H964.421V248.2H949.541ZM963.932 248.2V216.52H978.812V248.2H963.932ZM978.322 248.2V216.52H993.203V248.2H978.322ZM1050.28 248.2V216.52H1065.16V248.2H1050.28ZM1064.67 232.36V216.52H1079.55V232.36H1064.67ZM1151.01 248.2V232.36H1165.89V248.2H1151.01ZM1165.4 248.2V216.52H1180.28V248.2H1165.4ZM1179.79 248.2V216.52H1194.67V248.2H1179.79ZM1194.18 248.2V216.52H1209.06V248.2H1194.18ZM1208.57 248.2V216.52H1223.45V248.2H1208.57ZM1222.96 232.36V216.52H1237.84V232.36H1222.96Z" fill="black"/>
</g>
<defs>
<clipPath id="clip0_286_242">
<rect width="1266" height="248" fill="white"/>
</clipPath>
</defs>
</svg>
